<svg xmlns="http://www.w3.org/2000/svg" xmlns:xlink="http://www.w3.org/1999/xlink" width="450" zoomAndPan="magnify" viewBox="0 0 337.5 112.499997" height="150" preserveAspectRatio="xMidYMid meet" version="1.0"><defs><g/></defs><g fill="#ffffff" fill-opacity="1"><g transform="translate(3.329007, 76.308815)"><g><path d="M 3.6875 -43 L 29.484375 -43 C 33.785156 -43 36.910156 -42.023438 38.859375 -40.078125 C 40.804688 -38.140625 41.78125 -35.019531 41.78125 -30.71875 L 41.78125 -24.578125 C 41.78125 -20.273438 40.804688 -17.148438 38.859375 -15.203125 C 36.910156 -13.253906 33.785156 -12.28125 29.484375 -12.28125 L 14.75 -12.28125 L 14.75 0 L 3.6875 0 Z M 30.71875 -30.71875 C 30.71875 -33.175781 29.488281 -34.40625 27.03125 -34.40625 L 14.75 -34.40625 L 14.75 -20.890625 L 27.03125 -20.890625 C 29.488281 -20.890625 30.71875 -22.117188 30.71875 -24.578125 Z M 30.71875 -30.71875 "/></g></g></g><g fill="#ffffff" fill-opacity="1"><g transform="translate(46.937477, 76.308815)"><g><path d="M 3.6875 -43 L 29.484375 -43 C 33.785156 -43 36.910156 -42.023438 38.859375 -40.078125 C 40.804688 -38.140625 41.78125 -35.019531 41.78125 -30.71875 L 41.78125 -25.1875 C 41.78125 -21.789062 41.21875 -19.148438 40.09375 -17.265625 C 38.96875 -15.378906 37.175781 -14.128906 34.71875 -13.515625 L 42.390625 0 L 30.40625 0 L 23.34375 -12.90625 L 14.75 -12.90625 L 14.75 0 L 3.6875 0 Z M 30.71875 -30.71875 C 30.71875 -33.175781 29.488281 -34.40625 27.03125 -34.40625 L 14.75 -34.40625 L 14.75 -21.5 L 27.03125 -21.5 C 29.488281 -21.5 30.71875 -22.726562 30.71875 -25.1875 Z M 30.71875 -30.71875 "/></g></g></g><g fill="#ffffff" fill-opacity="1"><g transform="translate(91.160158, 76.308815)"><g><path d="M 23.953125 0 L 1.84375 0 L 1.84375 -8.59375 L 7.375 -8.59375 L 7.375 -34.40625 L 1.84375 -34.40625 L 1.84375 -43 L 23.953125 -43 L 23.953125 -34.40625 L 18.4375 -34.40625 L 18.4375 -8.59375 L 23.953125 -8.59375 Z M 23.953125 0 "/></g></g></g><g fill="#ffffff" fill-opacity="1"><g transform="translate(116.956718, 76.308815)"><g><path d="M 40.546875 -23.953125 L 31.953125 -8.59375 L 23.34375 -8.59375 L 14.75 -23.953125 L 14.75 0 L 3.6875 0 L 3.6875 -43 L 15.359375 -43 L 27.640625 -20.28125 L 39.9375 -43 L 51.609375 -43 L 51.609375 0 L 40.546875 0 Z M 40.546875 -23.953125 "/></g></g></g><g fill="#ffffff" fill-opacity="1"><g transform="translate(172.235059, 76.308815)"><g><path d="M 37.78125 0 L 3.6875 0 L 3.6875 -43 L 37.78125 -43 L 37.78125 -34.40625 L 14.75 -34.40625 L 14.75 -26.109375 L 32.875 -26.109375 L 32.875 -17.515625 L 14.75 -17.515625 L 14.75 -8.59375 L 37.78125 -8.59375 Z M 37.78125 0 "/></g></g></g><g fill="#ffffff" fill-opacity="1"><g transform="translate(211.236995, 76.308815)"><g><path d="M 2.390625 -8.90625 C 13.617188 -8.289062 21.21875 -7.984375 25.1875 -7.984375 C 26.132812 -7.984375 26.882812 -8.257812 27.4375 -8.8125 C 27.988281 -9.363281 28.265625 -10.113281 28.265625 -11.0625 L 28.265625 -16.59375 L 14.125 -16.59375 C 9.832031 -16.59375 6.710938 -17.5625 4.765625 -19.5 C 2.816406 -21.445312 1.84375 -24.570312 1.84375 -28.875 L 1.84375 -30.71875 C 1.84375 -35.019531 2.816406 -38.140625 4.765625 -40.078125 C 6.710938 -42.023438 9.832031 -43 14.125 -43 L 35.6875 -43 L 35.6875 -34.40625 L 16.59375 -34.40625 C 14.132812 -34.40625 12.90625 -33.175781 12.90625 -30.71875 L 12.90625 -29.484375 C 12.90625 -27.023438 14.132812 -25.796875 16.59375 -25.796875 L 27.640625 -25.796875 C 31.660156 -25.796875 34.609375 -24.851562 36.484375 -22.96875 C 38.367188 -21.09375 39.3125 -18.144531 39.3125 -14.125 L 39.3125 -11.0625 C 39.3125 -7.039062 38.367188 -4.085938 36.484375 -2.203125 C 34.609375 -0.328125 31.660156 0.609375 27.640625 0.609375 C 25.554688 0.609375 23.347656 0.566406 21.015625 0.484375 L 15.359375 0.25 C 11.179688 0.0390625 6.859375 -0.242188 2.390625 -0.609375 Z M 2.390625 -8.90625 "/></g></g></g><g fill="#ffffff" fill-opacity="1"><g transform="translate(252.388647, 76.308815)"><g><path d="M -1.234375 -43 L 10.4375 -43 L 20.578125 -22.125 L 30.71875 -43 L 42.390625 -43 L 26.109375 -11.359375 L 26.109375 0 L 15.046875 0 L 15.046875 -11.359375 Z M -1.234375 -43 "/></g></g></g><g fill="#ffffff" fill-opacity="1"><g transform="translate(293.540298, 76.308815)"><g><path d="M 2.390625 -8.90625 C 13.617188 -8.289062 21.21875 -7.984375 25.1875 -7.984375 C 26.132812 -7.984375 26.882812 -8.257812 27.4375 -8.8125 C 27.988281 -9.363281 28.265625 -10.113281 28.265625 -11.0625 L 28.265625 -16.59375 L 14.125 -16.59375 C 9.832031 -16.59375 6.710938 -17.5625 4.765625 -19.5 C 2.816406 -21.445312 1.84375 -24.570312 1.84375 -28.875 L 1.84375 -30.71875 C 1.84375 -35.019531 2.816406 -38.140625 4.765625 -40.078125 C 6.710938 -42.023438 9.832031 -43 14.125 -43 L 35.6875 -43 L 35.6875 -34.40625 L 16.59375 -34.40625 C 14.132812 -34.40625 12.90625 -33.175781 12.90625 -30.71875 L 12.90625 -29.484375 C 12.90625 -27.023438 14.132812 -25.796875 16.59375 -25.796875 L 27.640625 -25.796875 C 31.660156 -25.796875 34.609375 -24.851562 36.484375 -22.96875 C 38.367188 -21.09375 39.3125 -18.144531 39.3125 -14.125 L 39.3125 -11.0625 C 39.3125 -7.039062 38.367188 -4.085938 36.484375 -2.203125 C 34.609375 -0.328125 31.660156 0.609375 27.640625 0.609375 C 25.554688 0.609375 23.347656 0.566406 21.015625 0.484375 L 15.359375 0.25 C 11.179688 0.0390625 6.859375 -0.242188 2.390625 -0.609375 Z M 2.390625 -8.90625 "/></g></g></g></svg>